<?xml version="1.0" standalone="no"?>
<!DOCTYPE svg PUBLIC "-//W3C//DTD SVG 20010904//EN"
 "http://www.w3.org/TR/2001/REC-SVG-20010904/DTD/svg10.dtd">
<svg version="1.0" xmlns="http://www.w3.org/2000/svg"
 width="500.000000pt" height="500.000000pt" viewBox="0 0 500.000000 500.000000"
 preserveAspectRatio="xMidYMid meet">

<g transform="translate(0.000000,500.000000) scale(0.100000,-0.100000)"
fill="#000000" stroke="none">
<path d="M2833 3622 c-133 -63 -181 -91 -178 -102 2 -8 32 -188 66 -400 l62
-386 -230 -364 c-126 -201 -233 -371 -237 -377 -6 -10 37 -13 201 -13 l208 1
116 183 116 182 -54 222 -55 222 147 200 146 199 -51 243 c-58 276 -59 278
-68 277 -4 0 -89 -40 -189 -87z"/>
<path d="M1600 3544 c0 -3 36 -53 80 -110 44 -57 80 -109 80 -116 0 -6 -65
-309 -145 -673 -80 -363 -145 -664 -145 -668 0 -4 89 -6 197 -5 l197 3 70 320
71 320 85 5 85 5 198 145 198 145 -251 3 c-233 2 -251 4 -246 20 3 9 17 71 31
137 14 66 27 130 30 143 5 21 11 22 85 22 44 0 80 -3 80 -7 -1 -5 -7 -36 -14
-70 -7 -34 -11 -65 -8 -68 3 -3 90 -5 194 -5 172 0 188 1 188 18 0 29 -68 421
-75 432 -7 11 -985 15 -985 4z"/>
<path d="M3211 3147 l-262 -393 36 -155 c19 -85 38 -162 43 -171 6 -15 22 -10
132 40 69 32 153 75 188 95 35 20 67 37 73 37 5 0 9 -20 9 -45 0 -44 -2 -46
-52 -79 -63 -40 -247 -133 -301 -152 -38 -13 -38 -13 -51 17 -10 25 -14 28
-20 14 -19 -50 4 -122 54 -170 29 -28 39 -55 21 -55 -15 0 -73 71 -91 112 -16
36 -18 38 -24 16 -23 -86 7 -150 98 -213 60 -41 60 -42 87 -170 7 -33 13 -61
15 -63 1 -2 36 14 77 35 l76 37 -59 38 -60 37 0 50 0 50 83 -39 c46 -21 99
-48 118 -59 19 -12 38 -21 42 -21 22 0 -12 24 -103 72 l-100 53 0 53 c0 28 2
52 5 52 13 0 206 -90 242 -113 24 -15 44 -27 46 -27 2 0 -11 87 -28 193 l-32
192 44 43 c50 48 73 95 73 145 0 49 -10 52 -32 9 -21 -39 -76 -102 -90 -102
-14 0 -8 38 7 44 8 3 29 27 45 53 22 35 30 59 30 92 l0 46 -17 -33 c-15 -32
-81 -97 -89 -89 -9 8 -32 162 -26 172 4 8 297 470 439 693 l34 52 -209 0 -209
0 -262 -393z m249 -696 c0 -47 -1 -49 -54 -84 -29 -19 -95 -57 -147 -82 l-93
-47 -33 17 c-18 10 -39 25 -47 34 -14 15 -9 19 52 45 77 33 220 108 272 143
19 12 38 23 42 23 5 0 8 -22 8 -49z"/>
</g>
</svg>
